<?xml version="1.0" encoding="utf-8"?>
<!-- Generator: Adobe Illustrator 22.0.1, SVG Export Plug-In . SVG Version: 6.00 Build 0)  -->
<svg version="1.1" id="Layer_1" xmlns="http://www.w3.org/2000/svg" xmlns:xlink="http://www.w3.org/1999/xlink" x="0px" y="0px"
	 viewBox="0 0 100 89.8" style="enable-background:new 0 0 100 89.8;" xml:space="preserve">
<style type="text/css">
	.st0{fill:#8C8D91;}
</style>
<title>Home</title>
<path class="st0" d="M100,41.1c0.1-3.3-1.4-6.5-4.1-8.4c-12.9-10-25.8-20-38.7-30.1C53-0.9,47-0.9,42.9,2.6
	c-13,10.1-26,20.2-38.9,30.3c-1.8,1.3-3.1,3.3-3.6,5.5C0.1,40.2,0,42,0,43.8c-0.1,4.2,2.3,6.7,6.6,6.7c2.1,0,4.3,0,6.5,0v2.2
	c0,4.8,0,9.5,0,14.3v11.6c0,0.1,0,0.2,0,0.2c0,0.5,0,1,0,1.5c0,5.2,4.2,9.5,9.5,9.5c0,0,0,0,0.1,0h11.9h2c0.3,0,0.5,0,0.8,0h39.8
	c5.2,0.1,9.6-4.1,9.7-9.3c0-0.1,0-0.3,0-0.4c0-0.5,0-1,0-1.4c0,0,0-0.1,0-0.2V65.9c0,0,0-0.1,0-0.1c0-4.5,0-9,0-13.5v-1.8
	c2.4,0,4.6,0,6.8,0c3.3,0.2,6.1-2.4,6.3-5.7c0-0.2,0-0.4,0-0.6C100,43.2,100,42.2,100,41.1z"/>
</svg>
