<?xml version="1.0" encoding="utf-8"?>
<!-- Generator: Adobe Illustrator 22.0.1, SVG Export Plug-In . SVG Version: 6.00 Build 0)  -->
<svg version="1.1" id="Layer_1" xmlns="http://www.w3.org/2000/svg" xmlns:xlink="http://www.w3.org/1999/xlink" x="0px" y="0px"
	 viewBox="0 0 210.5 235" style="enable-background:new 0 0 210.5 235;" xml:space="preserve">
<style type="text/css">
	.st0{fill:none;stroke:#000000;stroke-width:0.4715;stroke-miterlimit:3.8636;}
	.st1{fill:#FFFFFF;}
	.st2{fill:none;stroke:#DDDDDD;stroke-miterlimit:10;}
	.st3{fill:#990000;}
	.st4{fill:#011F5B;}
	.st5{fill:none;stroke:#000000;stroke-width:0.2522;stroke-miterlimit:3.8636;}
	.st6{fill:#011F5B;stroke:#011F5B;stroke-width:3;}
	.st7{fill:none;stroke:#C6C6C6;stroke-miterlimit:10;}
</style>
<g>
	<g>
		<path class="st0" d="M202.8,2"/>
	</g>
	<g>
		<path class="st1" d="M3,2.9h204.7c0,0,0,100.5,0,102.3c-1.4,83.4-94.8,127.2-106.6,126.8C88.8,231.6,2.7,188.7,3,104.8
			C3,103.3,3,2.9,3,2.9z"/>
		<g>
			<path class="st2" d="M13.8,155.1c7.9,16.7,17.8,30.2,31.6,41.6l60.2-60.8l57.9,59.4c11.9-10.9,23.6-24.1,31.9-39.8L105.5,69
				l-91.2,86.3L13.8,155.1z"/>
		</g>
	</g>
	<g>
		<path class="st3" d="M3,65.1C3.3,65.4,3,2.9,3,2.9h204.5c0,0,0,33.5,0,62.2H3z"/>
	</g>
	<g>
		<path class="st0" d="M52.3,1.2"/>
	</g>
	<g>
		<path class="st0" d="M46.1,1.9"/>
	</g>
	<g>
		<path class="st0" d="M6.8,1.9"/>
	</g>
	<g>
		<path class="st0" d="M20.4,2.4"/>
	</g>
	<g>
		<path class="st0" d="M33.6,1.9"/>
	</g>
	<g>
		<path class="st0" d="M163.9,1.9"/>
	</g>
	<g>
		<path class="st0" d="M176.6,2.9"/>
	</g>
	<g>
		<path class="st0" d="M189.6,2.7"/>
	</g>
	<g>
		<path class="st0" d="M40.4,1.3"/>
	</g>
	<g>
		<path class="st0" d="M27.1,1.9"/>
	</g>
	<g>
		<path class="st0" d="M13.6,1.3"/>
	</g>
	<g>
		<path class="st0" d="M105.3,50.6"/>
	</g>
	<g>
		<path class="st0" d="M79.6,55.4"/>
	</g>
	<g>
		<path class="st0" d="M66.6,58.6"/>
	</g>
	<g>
		<path class="st0" d="M119.1,57.5"/>
	</g>
	<g>
		<path class="st0" d="M196.3,2.1"/>
	</g>
	<g>
		<path class="st0" d="M170.6,1.3"/>
	</g>
	<g>
		<path class="st0" d="M183.3,2.4"/>
	</g>
	<g>
		<path class="st0" d="M157.3,1.3"/>
	</g>
	<g>
		<rect x="3" y="63.6" class="st4" width="204.5" height="4.6"/>
	</g>
	<g>
		<path class="st0" d="M98.7,47.3"/>
	</g>
	<g>
		<path class="st0" d="M72.9,59.1"/>
	</g>
	<g>
		<path class="st0" d="M85.6,49.3"/>
	</g>
	<g>
		<path class="st0" d="M59.1,1.9"/>
	</g>
	<g>
		<path class="st0" d="M137.1,33.6"/>
	</g>
	<g>
		<path class="st0" d="M124.6,58.9"/>
	</g>
	<g>
		<path class="st0" d="M92.5,46.1"/>
	</g>
	<g>
		<path class="st0" d="M143.9,55.7"/>
	</g>
	<g>
		<path class="st0" d="M131.5,40.2"/>
	</g>
	<g>
		<path class="st0" d="M112.6,54.1"/>
	</g>
	<g>
		<path class="st0" d="M137,58.7"/>
	</g>
	<g>
		<path class="st5" d="M41.1,193.3"/>
	</g>
	<g>
		<path class="st6" d="M101.1,233.5c-0.1,0-0.1,0-0.2,0c-11.6-0.4-99.7-43.6-99.4-128.7c0-1.5,0-101.9,0-101.9V1.5H209v103.7
			c-0.7,41-23.6,71.3-42.7,89.4C139.5,220.2,108.4,233.5,101.1,233.5z M4.3,4.3c0,12.2,0,99.1,0,100.5
			C4.1,188.1,89.8,230.3,101,230.7h0.1c6.1,0,36.6-12.8,63.2-38c18.7-17.8,41.1-47.4,41.8-87.4V4.3H4.3z"/>
	</g>
	<g>
		<g>
			<path class="st2" d="M39.3,150.8c0-9.5,8-17.2,17.8-17.2c9.9,0,17.8,7.7,17.8,17.2s-8,17.2-17.8,17.2S39.3,160.3,39.3,150.8z"/>
		</g>
		<g>
			<path class="st7" d="M57.1,150.8"/>
		</g>
	</g>
	<g>
		<g>
			<path class="st2" d="M88.4,109.5c0-9.5,8-17.2,17.8-17.2c9.9,0,17.8,7.7,17.8,17.2s-8,17.2-17.8,17.2S88.4,119,88.4,109.5z"/>
		</g>
		<g>
			<path class="st2" d="M106.2,109.5"/>
		</g>
	</g>
	<g>
		<g>
			<path class="st2" d="M134.7,150.8c0-9.5,8-17.2,17.8-17.2c9.9,0,17.8,7.7,17.8,17.2s-8,17.2-17.8,17.2
				C142.6,168,134.7,160.3,134.7,150.8z"/>
		</g>
		<g>
			<path class="st7" d="M152.5,150.8"/>
		</g>
	</g>
</g>
<path class="st4" d="M121.7,149.2c4.2,6.9,9.7,11.9,19.3,11.9c8.1,0,13.3-4.1,13.3-9.7c0-6.7-5.3-9.1-14.3-13l-4.9-2.1
	c-14.1-6-23.5-13.6-23.5-29.5c0-14.7,11.2-25.9,28.7-25.9c12.4,0,21.4,4.3,27.8,15.7l-15.2,9.8c-3.4-6-7-8.4-12.6-8.4
	c-5.7,0-9.4,3.6-9.4,8.4c0,5.9,3.6,8.3,12,11.9l4.9,2.1c16.6,7.1,26,14.4,26,30.8c0,17.6-13.8,27.3-32.4,27.3
	c-18.2,0-29.9-8.7-35.7-20L121.7,149.2z M52.5,150.9c3.1,5.5,5.9,10.1,12.6,10.1c6.4,0,10.5-2.5,10.5-12.3V82.1h19.6v66.8
	c0,20.3-11.9,29.5-29.2,29.5c-15.7,0-24.8-8.1-29.4-17.9L52.5,150.9z"/>
</svg>
